<?xml version="1.0" encoding="utf-8"?>
<!-- Generator: Adobe Illustrator 20.1.0, SVG Export Plug-In . SVG Version: 6.00 Build 0)  -->
<svg version="1.1" id="Layer_1" xmlns="http://www.w3.org/2000/svg" xmlns:xlink="http://www.w3.org/1999/xlink" x="0px" y="0px"
	 viewBox="0 0 960 560" style="enable-background:new 0 0 960 560;" xml:space="preserve">
<style type="text/css">
	.st0{fill:#B3CED9;}
	.st1{fill:#2B0000;}
	.st2{fill:#7EACBF;}
	.st3{fill:none;stroke:#000000;stroke-width:10.4995;stroke-linecap:round;}
</style>
<g>
	<path class="st0" d="M611.9,312.4c0,83.3-60.6,150.8-135.3,150.8c-74.7,0-135.3-67.5-135.3-150.8c0-83.3,60.6-150.8,135.3-150.8
		C551.3,161.7,611.9,229.2,611.9,312.4L611.9,312.4z M611.9,312.4"/>
	<path class="st1" d="M474.2,99l164.9,54.8l-154.2,58.6L320,157.6L474.2,99z M474.2,99"/>
	<path class="st1" d="M441.7,210.5l93.3-30c3.7-1.2,14.4,3.5,24.1,10.4c9.7,7,14.5,13.5,10.8,14.7l-93.3,30
		c-3.7,1.2-14.4-3.5-24.1-10.4C442.9,218.3,438.1,211.7,441.7,210.5L441.7,210.5z M441.7,210.5"/>
	<path class="st1" d="M405.4,182l96,26.9c3.8,1.1,0.7,7.9-7,15.3c-7.6,7.4-16.9,12.6-20.6,11.5l-96-26.9c-3.8-1.1-0.7-7.9,7-15.3
		C392.4,186.1,401.6,181,405.4,182L405.4,182z M405.4,182"/>
	<rect x="602.3" y="148.4" class="st1" width="7.6" height="61.7"/>
	<path class="st1" d="M614.7,208.5c0,4-3.8,7.2-8.6,7.2c-4.7,0-8.6-3.2-8.6-7.2c0-4,3.8-7.2,8.6-7.2
		C610.9,201.3,614.7,204.5,614.7,208.5L614.7,208.5z M614.7,208.5"/>
	<path class="st1" d="M617.3,229.1l-21.6,0l10.8-20.2L617.3,229.1z M617.3,229.1"/>
	<path d="M369.4,334.7c6.6,13,42.5,25.8,56.7,25c0,0,43.7-7.6,50.7-7.3c1.2-0.1,21.2,1.8,53.5,7c0,0,24.5-2.1,48.8-20.8
		c0,0,4.8-3.9,5.1-12.4c0,0-5.9-56.9-9-62.5c0,0-4.8-11.4-19.8-15.1c-15-6.8-137.3-14-169.3,5c0,0-9.7,3.6-12.4,19.6l-6.3,51.1
		C367.3,327.7,367.5,331.2,369.4,334.7L369.4,334.7z M369.4,334.7"/>
	<path d="M365.3,266.2c0,0-8.7,54.1-7.5,62.5c0,0-6.7,1.6-8.5-6l-0.7-49.4c0,0.2-0.5-6.3,6.1-6.8L365.3,266.2z M365.3,266.2"/>
	<path d="M585.8,263.5c0,0,9.4,53.9,8.4,62.4c0,0,6.5,1.5,8.2-6.2l-0.2-49.4c0,0.2,0.4-6.3-6.1-6.7L585.8,263.5z M585.8,263.5"/>
	<path class="st2" d="M430.2,310.7c-1,0-2.5,0.1-4.6,0.3c-2,0.2-3.6,0.3-4.6,0.3c-2.9,0-4.3,0-4.2,0c-2.2-0.2-3.4-0.7-3.7-1.5
		c-0.2-0.5-0.3-1.6-0.3-3.3c0-1.3,0-2,0-2.1c0.1-0.5,0.6-0.7,1.4-0.7h3.1c3.9,0,6.5,0.1,7.6,0.2l2.6,0.3c0.6,0,0.8-0.2,0.8-0.7
		c0-1.8,0.1-3.6,0.2-5.5c0.3-4,0.5-5.7,0.5-5.2c0-0.5-0.2-0.8-0.7-0.8c-0.4,0-0.9,0-1.6,0.1c-0.9,0.1-1.4,0.1-1.6,0.2
		c-2.5,0.2-5,0.2-7.4,0.2c-0.4,0-0.8,0-1.4,0.1c-0.6,0-0.9,0.1-1.1,0.1c-0.9,0-1.6-0.2-1.9-0.6c-0.4-0.5-0.6-1.5-0.6-3.1
		c0-1.5,0-2.4,0.1-2.6c0.2-0.6,0.9-0.9,1.9-0.9c4.1,0,8.7,0.3,13.9,0.7c0.3,0,0.5,0,0.6,0c0.4,0,0.6-0.2,0.6-0.7
		c0-0.6-0.1-2.2-0.3-4.8c-0.2-2.6-0.4-4.2-0.5-4.8c-0.2-0.9-0.7-1.3-1.7-1.3c-1.4,0-3.5,0-6.4,0.1c-2.9,0.1-5,0.1-6.4,0.1
		c-1.4,0-3.6,0-6.5-0.1c-2.9-0.1-5-0.1-6.5-0.1c-0.5,0-0.8,0.3-0.7,0.8l0,0.5c0.2,3.6,0.3,6.3,0.3,8.1c0.2,7.1,0.3,11.9,0.3,14.5
		c0,2.5-0.1,6.4-0.4,11.5c-0.2,5.1-0.4,8.9-0.4,11.5c0,0.7,0.3,1,1,1c1.5,0,3.7,0,6.6,0c2.9,0,5.2,0,6.7,0c6.8,0,11,0.1,12.4,0.3
		c0.4,0.1,0.7,0.1,0.9,0.1c0.4,0,0.7-0.2,1-0.6c0.3-0.5,0.6-2.2,0.9-5.1c0.3-2.6,0.5-4.4,0.5-5.4l0,0
		C430.9,311.1,430.6,310.7,430.2,310.7L430.2,310.7L430.2,310.7z M458.4,299c0.3-1.9,0.4-4.4,0.4-7.6c0-0.5-0.2-0.7-0.5-0.7
		c-1.3,0-3.3,0-5.9,0.1c-2.6,0.1-4.6,0.1-5.9,0.1c-1.3,0-3.1-0.1-5.6-0.2c-2.5-0.1-4.4-0.2-5.6-0.2c-0.3,0-0.6,0.2-0.7,0.5
		c-0.1,1.3-0.1,2.6-0.1,3.7c-0.2,2.1-0.2,3.2-0.2,3.4c0,0.8,0.2,1.2,0.5,1.2c1.2,0,3,0,5.4-0.1c2.4-0.1,4.2-0.1,5.4-0.1
		c7,0,11.1,0.1,12.3,0.3c0.1,0,0.2,0.1,0.2,0.1C458.2,299.6,458.3,299.4,458.4,299L458.4,299L458.4,299z M458.4,311.9
		c0,0,0.1-1.3,0.2-3.6c0.1-2.4,0.2-3.7,0.2-3.9c0-0.5-0.2-0.7-0.5-0.7c-1.3,0-3.3,0-5.9,0.1c-2.6,0.1-4.6,0.1-5.9,0.1
		c-1.3,0-3.1-0.1-5.6-0.2c-2.5-0.1-4.4-0.2-5.6-0.2c-0.3,0-0.6,0.2-0.7,0.5c-0.1,1.4-0.1,2.6-0.1,3.7c0,0.3-0.1,0.9-0.2,1.7
		c-0.1,0.7-0.1,1.3-0.1,1.7c0,0.7,0.2,1.1,0.5,1.1c1.2,0,3-0.1,5.4-0.2c2.4-0.1,4.2-0.2,5.4-0.2c4.2,0,8.3,0.1,12.3,0.3l0.3,0
		C458.2,312.4,458.3,312.2,458.4,311.9L458.4,311.9L458.4,311.9z M509.6,314.8c-0.1-2.9-0.1-5-0.1-6.5c0-1.2,0-3,0.1-5.4
		c0.1-2.4,0.1-4.2,0.1-5.4c0-2.9-0.9-5.1-2.7-6.7c-1.6-1.4-3.7-2.1-6.3-2.1c-1.7,0-3.5,0.6-5.3,1.7c-1.8,1.1-3.2,2.5-4.2,4.1
		c-0.5-1.9-1.5-3.3-3.1-4.4c-1.4-0.9-3-1.4-4.8-1.4c-1.7,0-3.4,0.4-4.9,1.3c-1,0.6-2.4,1.7-4.1,3.3c-0.3,0.2-0.5,0.4-0.7,0.5
		c-0.1,0-0.2-0.8-0.2-2.4c0-1.6-0.2-2.4-0.6-2.4c-0.6,0-1.3,0.2-2.3,0.5c-1.3,0.4-2.1,0.7-2.3,0.7c-0.3,0-1.1,0.1-2.6,0.3
		c-1.2,0.1-2,0.3-2.4,0.5c-0.3,0.1-0.4,0.4-0.4,0.8c0,0.1,0,0.3,0.1,0.6c0.5,4.7,0.7,8.8,0.7,12.6c0,1.8,0,4.5,0,8.2
		c0,3.6,0,6.3,0,8.2c0,0.6,0,0.9,0.1,1c0.1,0.1,0.4,0.2,0.8,0.2c1.6,0.1,2.9,0.2,4.2,0.2c1.9,0,3.3,0,4.1-0.1c0.5,0,0.8-0.1,0.9-0.3
		c0.1-0.1,0.2-0.5,0.2-1.1c0-2,0-5.1,0-9.2c0-4.1,0-7.2,0-9.3c0-0.9,0.5-1.8,1.6-2.7c1-0.8,1.9-1.2,2.8-1.2c2.1,0,3.2,1.6,3.2,4.9
		c0,0.9,0,2.1,0.1,3.8c0,1.7,0.1,3,0.1,3.8c0,1.1,0,2.7-0.1,4.8c-0.1,2.1-0.1,3.7-0.1,4.8c0,0.9,0.3,1.4,0.8,1.4h8.8
		c0.6,0,0.8-0.4,0.8-1.1c0-1.1,0-2.7-0.1-4.9c-0.1-2.2-0.1-3.8-0.1-4.9c0-4.6,0-7.4,0.1-8.4c0.1-1.1,0.6-2.1,1.5-3
		c0.9-0.9,1.8-1.3,2.7-1.3c2.1,0,3.2,1.4,3.3,4.1c0.1,1.7,0.1,4.5,0.1,8.5c0,1,0,2.6-0.1,4.7c-0.1,2.1-0.1,3.6-0.1,4.7
		c0,1,0.3,1.5,0.9,1.7c0.6,0.1,2.1,0.2,4.4,0.2c2.3,0,3.7,0,4.3-0.1c0.6-0.1,0.9-0.5,0.9-1.3C509.7,319.8,509.7,317.6,509.6,314.8
		L509.6,314.8z M535,299.3c0.2-0.5,0.5-1.9,1.1-4.2c0.6-2.4,0.9-3.7,0.9-4c0-0.3-0.3-0.6-0.8-0.9c-2.2-1.5-4.7-2.2-7.6-2.2
		c-4.2,0-7.8,1.7-10.5,5.1c-2.8,3.4-4.2,7.6-4.2,12.6c0,5,1.4,9.2,4.2,12.6c2.8,3.4,6.3,5,10.6,5c1.1,0,2.6-0.2,4.5-0.7
		c2.4-0.6,3.6-1.4,3.6-2.2c0-0.9-0.2-2.6-0.7-5.2c-0.5-2.9-1-4.3-1.3-4.3c0.1,0-0.4,0.3-1.5,0.8c-1.1,0.5-2,0.8-2.9,0.8
		c-1.8,0-3.3-0.6-4.4-1.8c-1.1-1.2-1.7-2.8-1.7-4.9c0-2,0.5-3.6,1.5-4.9c1-1.2,2.4-1.8,4.1-1.8c0.7,0,1.7,0.2,2.8,0.5
		c1.2,0.4,1.7,0.5,1.8,0.5C534.7,300.1,534.8,299.8,535,299.3L535,299.3z"/>
	<path class="st2" d="M556.8,287.4c-1.9,0-4.4,0.1-7.7,0.3c4.6-4.8,6.9-8.9,6.9-12.5c0-2.7-1-4.7-2.9-6.2c-1.6-1.2-3.6-1.9-6-1.9
		c-1.5,0-3,0.2-4.6,0.7c-1.8,0.5-3.2,1.2-4.2,2.1c-0.2,0.2-0.3,0.4-0.3,0.6c0,0.3,0.1,0.6,0.2,1.2c0.2,0.6,0.3,1,0.3,1.2
		c0.1,0.4,0.1,1.1,0.1,2c0,1.2,0.2,1.8,0.6,1.8c0.1,0,0.4-0.2,1-0.7c0.7-0.6,1.4-1,2.1-1.3c1-0.5,2-0.7,3-0.7c0.9,0,1.7,0.4,2.3,1.1
		c0.6,0.7,1,1.6,1,2.6c0,1.2-0.9,3-2.6,5.4c-1.3,1.9-2.6,3.5-3.9,4.8c-0.4,0.3-1.1,0.6-2.4,0.8c-1.1,0.2-1.6,0.4-1.6,0.7
		c0,0.2,0.2,1.1,0.5,2.6c0.2,1,0.2,1.7,0.3,2.2c0,0.4,0.2,0.6,0.5,0.6c0.9,0,2.4-0.1,4.3-0.2c1.9-0.1,3.4-0.2,4.4-0.2
		c3.1,0,5.3,0.1,6.4,0.4c1,0.3,1.6,0.4,1.8,0.4c0.4,0,0.6-0.2,0.6-0.6s0-0.9,0-1.7c0-0.8,0-1.3,0-1.7c0-0.4,0-0.9,0.1-1.5
		c0.1-0.7,0.1-1.2,0.1-1.5C557.4,287.7,557.2,287.4,556.8,287.4L556.8,287.4L556.8,287.4z"/>
	<path class="st3" d="M468.2,413c34.6,8.2,61.4-9,71.1-35.8"/>
</g>
</svg>
