<?xml version="1.0" encoding="utf-8"?>
<!-- Generator: Adobe Illustrator 20.1.0, SVG Export Plug-In . SVG Version: 6.00 Build 0)  -->
<svg version="1.1" id="Layer_1" xmlns="http://www.w3.org/2000/svg" xmlns:xlink="http://www.w3.org/1999/xlink" x="0px" y="0px"
	 viewBox="0 0 1280 1024" style="enable-background:new 0 0 1280 1024;" xml:space="preserve">
<style type="text/css">
	.st0{fill:#B3CED9;}
	.st1{fill:#2B0000;}
	.st2{fill:#7EACBF;}
	.st3{fill:none;stroke:#000000;stroke-width:10.4995;stroke-linecap:round;}
</style>
<g>
	<path class="st0" d="M998.2,594c0,227.8-165.7,412.5-370.1,412.5c-204.4,0-370.1-184.7-370.1-412.5
		c0-227.8,165.7-412.5,370.1-412.5C832.5,181.5,998.2,366.2,998.2,594L998.2,594z M998.2,594"/>
	<path class="st1" d="M621.5,9.9l451.3,149.9l-422,160.3L199.5,170.2L621.5,9.9z M621.5,9.9"/>
	<path class="st1" d="M532.6,315.1l255.4-82c10.1-3.2,39.5,9.5,65.9,28.5c26.4,19,39.6,37,29.5,40.2l-255.4,82
		c-10.1,3.2-39.5-9.5-65.9-28.5C535.7,336.3,522.6,318.3,532.6,315.1L532.6,315.1z M532.6,315.1"/>
	<path class="st1" d="M433.2,237.1l262.7,73.6c10.4,2.9,1.9,21.6-19.1,41.9c-20.9,20.3-46.1,34.3-56.5,31.4l-262.7-73.6
		c-10.4-2.9-1.9-21.6,19.1-41.9C397.6,248.2,422.8,234.2,433.2,237.1L433.2,237.1z M433.2,237.1"/>
	<rect x="972.1" y="145.1" class="st1" width="20.7" height="168.8"/>
	<path class="st1" d="M1006,309.6c0,10.9-10.5,19.7-23.5,19.7c-13,0-23.5-8.8-23.5-19.7c0-10.9,10.5-19.7,23.5-19.7
		C995.5,289.9,1006,298.7,1006,309.6L1006,309.6z M1006,309.6"/>
	<path class="st1" d="M1013,365.9l-59.2,0.1l29.5-55.3L1013,365.9z M1013,365.9"/>
	<path d="M334.7,654.9c18,35.6,116.2,70.6,155.3,68.5c0,0,119.5-20.8,138.8-20c3.4-0.3,58.1,5,146.4,19c0,0,67-5.6,133.4-57
		c0,0,13.2-10.8,14-34c0,0-16.1-155.7-24.5-171.1c0,0-13-31.3-54.1-41.2c-41.2-18.6-375.8-38.4-463.1,13.7c0,0-26.6,9.8-34,53.7
		l-17.2,139.8C328.8,635.9,329.4,645.4,334.7,654.9L334.7,654.9z M334.7,654.9"/>
	<path d="M323.3,467.4c0,0-23.9,148-20.5,171.1c0,0-18.2,4.3-23.3-16.5l-1.9-135c0.1,0.5-1.4-17.2,16.8-18.7L323.3,467.4z
		 M323.3,467.4"/>
	<path d="M926.8,460.1c0,0,25.8,147.5,22.9,170.7c0,0,17.8,4,22.4-16.9l-0.5-135c-0.1,0.5,1.1-17.2-16.7-18.4L926.8,460.1z
		 M926.8,460.1"/>
	<path class="st2" d="M501.1,589.1c-2.8,0-6.9,0.3-12.5,0.9c-5.5,0.6-9.7,0.9-12.5,0.9c-7.9,0-11.7,0-11.6,0
		c-5.9-0.4-9.3-1.8-10.2-4.2c-0.5-1.4-0.8-4.4-0.8-9.1c0-3.5,0-5.5,0.1-5.8c0.4-1.2,1.6-1.9,3.8-1.9h8.4c10.8,0,17.7,0.2,20.7,0.6
		l7.2,0.9c1.5,0,2.3-0.6,2.3-1.9c0-5,0.2-9.9,0.6-14.9c1-10.8,1.4-15.6,1.4-14.3c0-1.4-0.6-2.1-1.9-2.1c-1.1,0-2.5,0.1-4.3,0.4
		c-2.3,0.2-3.8,0.4-4.4,0.5c-6.8,0.4-13.6,0.7-20.3,0.7c-1,0-2.3,0-3.8,0.1c-1.5,0.1-2.6,0.1-3.1,0.1c-2.5,0-4.3-0.6-5.2-1.8
		c-1.1-1.4-1.6-4.2-1.6-8.4c0-4,0.1-6.4,0.4-7.2c0.6-1.6,2.4-2.3,5.2-2.3c11.2,0,23.9,0.7,38,2.1c0.8,0.1,1.4,0.1,1.7,0.1
		c1.1,0,1.6-0.7,1.6-2c0-1.6-0.3-5.9-0.8-13.2c-0.6-7.2-1-11.6-1.2-13c-0.4-2.4-2-3.6-4.8-3.6c-3.9,0-9.7,0.1-17.5,0.4
		c-7.8,0.2-13.6,0.4-17.5,0.4c-3.9,0-9.8-0.1-17.7-0.4c-7.9-0.2-13.8-0.4-17.7-0.4c-1.4,0-2.1,0.7-2,2.1l0.1,1.3
		c0.4,9.9,0.7,17.3,0.9,22.3c0.6,19.3,1,32.5,1,39.6c0,7-0.3,17.4-1,31.4c-0.7,14-1,24.4-1,31.4c0,1.8,0.9,2.7,2.6,2.7
		c4,0,10.1,0,18.1,0.1c8.1,0.1,14.1,0.1,18.2,0.1c18.7,0,30,0.3,33.9,0.9c1.1,0.2,1.9,0.3,2.4,0.3c1.1,0,2-0.6,2.6-1.8
		c0.7-1.5,1.6-6.1,2.5-13.9c0.9-7.1,1.4-12.1,1.4-14.7l0,0C502.9,590.2,502.3,589.1,501.1,589.1L501.1,589.1L501.1,589.1z
		 M578.2,557.3c0.7-5.1,1-12.1,1-20.9c0-1.2-0.5-1.9-1.4-1.9c-3.6,0-8.9,0.1-16.1,0.3c-7.2,0.2-12.6,0.3-16.1,0.3
		c-3.4,0-8.6-0.2-15.4-0.5c-6.8-0.3-12-0.5-15.4-0.5c-0.9,0-1.5,0.5-1.8,1.5c-0.2,3.6-0.3,7-0.3,10.2c-0.4,5.7-0.6,8.8-0.6,9.3
		c0,2.2,0.5,3.3,1.4,3.3c3.2,0,8.1-0.1,14.6-0.4c6.5-0.2,11.4-0.4,14.7-0.4c19.3,0,30.5,0.3,33.6,0.9c0.4,0.1,0.6,0.2,0.6,0.2
		C577.7,558.8,578.1,558.3,578.2,557.3L578.2,557.3L578.2,557.3z M578.2,592.6c0.1-0.1,0.3-3.4,0.6-10c0.4-6.5,0.6-10.1,0.6-10.7
		c0-1.2-0.5-1.9-1.4-1.9c-3.6,0-9,0.1-16.2,0.3c-7.2,0.2-12.6,0.3-16.2,0.3c-3.4,0-8.6-0.2-15.4-0.5c-6.8-0.3-12-0.5-15.4-0.5
		c-0.9,0-1.5,0.5-1.8,1.5c-0.2,3.7-0.2,7.1-0.2,10.2c-0.1,0.9-0.2,2.5-0.5,4.8c-0.2,2.1-0.3,3.6-0.3,4.8c0,1.9,0.5,2.9,1.4,2.9
		c3.2,0,8.1-0.2,14.6-0.5c6.5-0.3,11.4-0.5,14.7-0.5c11.5,0,22.7,0.3,33.6,0.9l0.8,0.1C577.6,593.8,577.9,593.4,578.2,592.6
		L578.2,592.6L578.2,592.6z M718.4,600.3c-0.2-7.9-0.2-13.7-0.2-17.7c0-3.3,0.1-8.2,0.2-14.9c0.2-6.6,0.2-11.6,0.2-14.9
		c0-8-2.5-14.1-7.5-18.4c-4.4-3.8-10.1-5.7-17.1-5.7c-4.7,0-9.5,1.5-14.4,4.6c-4.9,3-8.8,6.8-11.6,11.3c-1.3-5.2-4.1-9.2-8.4-12
		c-3.8-2.5-8.2-3.8-13.1-3.8c-4.8,0-9.2,1.2-13.3,3.4c-2.8,1.6-6.5,4.6-11.3,8.9c-0.7,0.6-1.3,1.1-1.8,1.3c-0.4,0-0.6-2.2-0.6-6.5
		c-0.1-4.3-0.6-6.5-1.6-6.5c-1.6,0-3.7,0.4-6.3,1.3c-3.7,1.2-5.8,1.8-6.3,2c-0.7,0.1-3.1,0.4-7.1,0.8c-3.2,0.4-5.4,0.8-6.6,1.4
		c-0.7,0.4-1.1,1.1-1.1,2.1c0,0.4,0.1,0.9,0.2,1.7c1.3,12.7,1.9,24.2,1.9,34.4c0,5,0,12.4-0.1,22.3c-0.1,9.9-0.1,17.4-0.1,22.3
		c0,1.6,0.1,2.5,0.4,2.8c0.2,0.3,1,0.5,2.3,0.7c4.2,0.4,8,0.6,11.4,0.6c5.1,0,8.9-0.1,11.3-0.4c1.3-0.1,2.1-0.4,2.5-0.7
		c0.3-0.4,0.5-1.3,0.5-2.9c0-5.6,0-14-0.1-25.3c-0.1-11.2-0.1-19.7-0.1-25.4c0-2.5,1.5-5,4.5-7.3c2.7-2.1,5.2-3.2,7.6-3.2
		c5.8,0,8.7,4.4,8.7,13.3c0,2.4,0.1,5.9,0.2,10.5c0.1,4.7,0.2,8.1,0.2,10.4c0,3-0.1,7.4-0.2,13.2c-0.2,5.8-0.2,10.2-0.2,13.1
		c0,2.5,0.7,3.8,2.2,3.8h24.1c1.5,0,2.3-1,2.3-3.1c0-3-0.1-7.4-0.2-13.4c-0.2-5.9-0.2-10.4-0.2-13.3c0-12.7,0.1-20.3,0.3-22.9
		c0.3-3,1.6-5.7,4.1-8.2c2.5-2.5,4.9-3.7,7.4-3.7c5.7,0,8.7,3.7,9,11.1c0.2,4.6,0.3,12.3,0.3,23.2c0,2.9-0.1,7.1-0.2,12.8
		c-0.2,5.7-0.2,10-0.2,12.8c0,2.7,0.8,4.2,2.4,4.6c1.6,0.4,5.6,0.6,12.1,0.6c6.3,0,10.2-0.1,11.8-0.4c1.6-0.2,2.4-1.5,2.4-3.6
		C718.6,614.1,718.6,608.2,718.4,600.3L718.4,600.3z M787.9,558.1c0.5-1.3,1.4-5.1,2.9-11.4c1.6-6.5,2.4-10.2,2.4-11
		c0-0.8-0.7-1.6-2.1-2.5c-6-4-12.9-6-20.9-6c-11.6,0-21.2,4.6-28.9,13.9c-7.6,9.3-11.4,20.7-11.4,34.3c0,13.7,3.8,25.2,11.4,34.4
		c7.6,9.2,17.2,13.8,28.9,13.8c3.1,0,7.2-0.7,12.3-2c6.6-1.7,9.9-3.7,9.9-6.1c0-2.4-0.6-7.1-1.8-14.4c-1.4-7.9-2.6-11.8-3.5-11.8
		c0.2,0-1.2,0.7-4.1,2.1c-2.9,1.4-5.5,2.1-7.9,2.1c-4.9,0-8.9-1.6-12-4.9c-3.1-3.3-4.6-7.8-4.6-13.5c0-5.5,1.4-10,4.2-13.3
		c2.8-3.3,6.6-5,11.3-5c2,0,4.5,0.5,7.7,1.5c3.2,1,4.8,1.5,4.8,1.5C786.9,560.1,787.4,559.5,787.9,558.1L787.9,558.1z"/>
	<path class="st2" d="M847.5,525.6c-5.1,0-12.1,0.3-21,0.8c12.6-13,18.9-24.4,18.9-34.1c0-7.3-2.6-12.9-7.8-16.9
		c-4.4-3.4-9.9-5.1-16.5-5.1c-4,0-8.2,0.6-12.5,1.8c-4.8,1.4-8.6,3.3-11.5,5.6c-0.6,0.5-0.9,1-0.9,1.5c0,0.7,0.2,1.7,0.6,3.2
		c0.4,1.7,0.7,2.7,0.8,3.3c0.2,1.1,0.3,2.9,0.3,5.5c0,3.2,0.6,4.8,1.8,4.8c0.2,0,1.1-0.6,2.8-1.9c2-1.5,3.9-2.7,5.7-3.5
		c2.7-1.3,5.5-1.9,8.2-1.9c2.4,0,4.6,1,6.3,2.9c1.8,2,2.7,4.4,2.7,7.2c0,3.3-2.3,8.3-7,14.9c-3.7,5.3-7.2,9.6-10.7,13
		c-1,0.9-3.1,1.7-6.5,2.2c-2.9,0.4-4.3,1.1-4.3,2c0,0.6,0.4,3,1.3,7.1c0.4,2.7,0.7,4.7,0.8,6.1c0.1,1,0.6,1.5,1.5,1.5
		c2.6,0,6.5-0.2,11.8-0.5c5.3-0.3,9.3-0.5,12-0.5c8.6,0,14.5,0.4,17.6,1.2c2.8,0.8,4.4,1.2,4.9,1.2c1.1,0,1.7-0.5,1.7-1.5
		c0-1,0-2.6,0.1-4.6c0-2.1,0.1-3.6,0.1-4.6c0-1,0.1-2.4,0.3-4.2c0.2-1.9,0.3-3.3,0.3-4.2C849,526.3,848.5,525.6,847.5,525.6
		L847.5,525.6L847.5,525.6z"/>
	<path class="st3" d="M605.1,869.2c94.6,22.5,167.9-24.6,194.6-98.1"/>
</g>
</svg>
